<?xml version="1.0" encoding="UTF-8"?>
<svg version="1.1" xmlns="http://www.w3.org/2000/svg" width="1024" height="1019">
<path d="M0 0 C337.92 0 675.84 0 1024 0 C1024 336.27 1024 672.54 1024 1019 C686.08 1019 348.16 1019 0 1019 C0 682.73 0 346.46 0 0 Z " fill="#000000" transform="translate(0,0)"/>
<path d="M0 0 C32.67 0 65.34 0 99 0 C99 150.15 99 300.3 99 455 C66.33 455 33.66 455 0 455 C0 304.85 0 154.7 0 0 Z " fill="#FDFDFD" transform="translate(218,537)"/>
<path d="M0 0 C149.82 0 299.64 0 454 0 C454 32.67 454 65.34 454 99 C304.18 99 154.36 99 0 99 C0 66.33 0 33.66 0 0 Z " fill="#FEFEFE" transform="translate(40,216)"/>
<path d="M0 0 C32.34 0 64.68 0 98 0 C98 149.49 98 298.98 98 453 C65.66 453 33.32 453 0 453 C0 303.51 0 154.02 0 0 Z " fill="#FCFCFC" transform="translate(718,38)"/>
<path d="M0 0 C150.15 0 300.3 0 455 0 C455 32.01 455 64.02 455 97 C304.85 97 154.7 97 0 97 C0 64.99 0 32.98 0 0 Z " fill="#FDFDFD" transform="translate(39,38)"/>
<path d="M0 0 C146.52 0 293.04 0 444 0 C444 32.67 444 65.34 444 99 C297.48 99 150.96 99 0 99 C0 66.33 0 33.66 0 0 Z " fill="#FEFEFE" transform="translate(544,715)"/>
<path d="M0 0 C31.68 0 63.36 0 96 0 C96 150.15 96 300.3 96 455 C64.32 455 32.64 455 0 455 C0 304.85 0 154.7 0 0 Z " fill="#FDFDFD" transform="translate(398,537)"/>
<path d="M0 0 C31.68 0 63.36 0 96 0 C96 150.15 96 300.3 96 455 C64.32 455 32.64 455 0 455 C0 304.85 0 154.7 0 0 Z " fill="#FDFDFD" transform="translate(41,537)"/>
<path d="M0 0 C31.68 0 63.36 0 96 0 C96 149.49 96 298.98 96 453 C64.32 453 32.64 453 0 453 C0 303.51 0 154.02 0 0 Z " fill="#FDFDFD" transform="translate(541,38)"/>
<path d="M0 0 C146.52 0 293.04 0 444 0 C444 32.01 444 64.02 444 97 C297.48 97 150.96 97 0 97 C0 64.99 0 32.98 0 0 Z " fill="#FDFDFD" transform="translate(544,895)"/>
<path d="M0 0 C146.52 0 293.04 0 444 0 C444 32.01 444 64.02 444 97 C297.48 97 150.96 97 0 97 C0 64.99 0 32.98 0 0 Z " fill="#FCFCFC" transform="translate(544,537)"/>
<path d="M0 0 C149.49 0 298.98 0 453 0 C453 31.35 453 62.7 453 95 C303.51 95 154.02 95 0 95 C0 63.65 0 32.3 0 0 Z " fill="#FEFEFE" transform="translate(41,396)"/>
<path d="M0 0 C30.69 0 61.38 0 93 0 C93 149.49 93 298.98 93 453 C62.31 453 31.62 453 0 453 C0 303.51 0 154.02 0 0 Z " fill="#FDFDFD" transform="translate(897,38)"/>
<path d="M0 0 C337.92 0 675.84 0 1024 0 C1024 1.65 1024 3.3 1024 5 C686.08 5 348.16 5 0 5 C0 3.35 0 1.7 0 0 Z " fill="#8C8B8B" transform="translate(0,1014)"/>
<path d="M0 0 C52.22600464 -0.03280874 104.4520119 -0.05138361 156.6780256 -0.06185675 C159.86049644 -0.06249708 163.04296728 -0.06315637 166.22543812 -0.06381607 C259.04611024 -0.08272727 351.8667796 -0.06313688 733.18040831 0.49548677 C736.78273098 0.50152038 740.38505366 0.50754604 743.98737634 0.51357197 C825.55719414 0.65003322 907.12700473 0.79049559 1024 1 C1024 1.66 1024 2.32 1024 3 C686.08 3 348.16 3 0 3 C0 2.01 0 1.02 0 0 Z " fill="#878786" transform="translate(0,1016)"/>
<path d="M0 0 C38.98705794 -0.04650301 77.97411147 -0.08137611 116.96119186 -0.10213066 C121.63867873 -0.10462996 126.31616555 -0.10721881 130.99365234 -0.10986328 C132.3895652 -0.11065021 132.3895652 -0.11065021 133.81367832 -0.11145304 C146.77141873 -0.11894208 159.72914655 -0.13120704 172.6868788 -0.14746866 C195.07250074 -0.17555666 217.4581094 -0.19388691 239.84375 -0.1953125 C241.15735905 -0.19542822 241.15735905 -0.19542822 242.49750566 -0.19554627 C306.01789972 -0.19928916 369.49614621 0.47406213 433 2 C433 2.33 433 2.66 433 3 C290.11 3 147.22 3 0 3 C0 2.01 0 1.02 0 0 Z " fill="#828281" transform="translate(0,1016)"/>
<path d="M0 0 C14.16662291 -0.06345197 28.33325288 -0.10270671 42.5 -0.125 C44.11996069 -0.12756805 44.11996069 -0.12756805 45.77264786 -0.13018799 C84.25324406 -0.18383649 122.71424144 0.26623167 161.1875 1 C162.44202972 1.02391563 163.69655945 1.04783127 164.98910522 1.07247162 C180.3263918 1.36624921 195.66333882 1.67525021 211 2 C211 2.33 211 2.66 211 3 C145.99 3 80.98 3 14 3 C14 2.67 14 2.34 14 2 C7.07 1.505 7.07 1.505 0 1 C0 0.67 0 0.34 0 0 Z " fill="#787978" transform="translate(222,1016)"/>
<path d="M0 0 C0.33 0 0.66 0 1 0 C1.00808685 0.80322189 1.01617371 1.60644379 1.02450562 2.43400574 C1.10251441 10.01140489 1.18982393 17.58861322 1.28752708 25.16578197 C1.33742813 29.06108745 1.38375855 32.95636662 1.421875 36.85180664 C1.45880627 40.61260387 1.50518718 44.37317768 1.55806351 48.13378334 C1.57656588 49.56702052 1.59168914 51.00030551 1.60334396 52.43361473 C1.62027694 54.44436452 1.65044472 56.45498957 1.68115234 58.46557617 C1.70113785 60.18099861 1.70113785 60.18099861 1.7215271 61.93107605 C2.00123448 65.01360468 2.74438612 67.1943277 4 70 C4.76766233 75.73254338 4.07539866 80.00247717 1 85 C0.67 85 0.34 85 0 85 C0 56.95 0 28.9 0 0 Z " fill="#4B4B4C" transform="translate(988,895)"/>
<path d="M0 0 C3.48723455 3.48723455 4.15174376 5.57163643 4.25 10.3125 C4.22241228 14.53342139 3.23748512 17.36408668 1 21 C0.67 21 0.34 21 0 21 C0 14.07 0 7.14 0 0 Z " fill="#838383" transform="translate(988,959)"/>
<path d="M0 0 C0 0.99 0 1.98 0 3 C-1.77049689 3.05410687 -3.54146849 3.09284119 -5.3125 3.125 C-6.79169922 3.15980469 -6.79169922 3.15980469 -8.30078125 3.1953125 C-11 3 -11 3 -14 1 C-9.32798795 -0.20568053 -4.78503708 -0.09382426 0 0 Z " fill="#7A7A7A" transform="translate(180,1016)"/>
</svg>
